<svg xmlns="http://www.w3.org/2000/svg" viewBox="0 0 751 411"><path d="M741,134.09l-19.11-7a54,54,0,0,0-44.1,3.18L386.65,287q-5.44,2.94-10.91,5.85-15,8-30.1,15.65a248.57,248.57,0,0,0-31.35,19c-20.9,14.82-45.59,37.06-62.93,67.73A10,10,0,0,0,260.05,410h54.26a16.94,16.94,0,0,0,14.48-8.24c11.49-18.95,26.73-35.64,46.85-44.74l.1,0,.09,0A90.9,90.9,0,0,1,401.72,375a133.87,133.87,0,0,1,21,26.8A16.94,16.94,0,0,0,437.17,410h54.25a10,10,0,0,0,8.7-14.82,199.91,199.91,0,0,0-39.73-49.07,244.55,244.55,0,0,0-23.21-18.66q27.46-13.92,54.5-28.71L743.05,161a14.79,14.79,0,0,0-2-26.86Z" fill="#253642"/><path d="M8.42,161,259.79,298.74q13.79,7.51,27.67,14.83,5.4-4.23,11.13-8.29a275.54,275.54,0,0,1,34.83-21.07c4.4-2.21,8.86-4.5,13.46-6.88l-273.22-147a54,54,0,0,0-44.1-3.18l-19.11,7a14.79,14.79,0,0,0-2,26.86Z" fill="#253642"/><path d="M388.69,258.76,700.74,72C686.39,57.6,671,56.14,660.43,57.5a9.36,9.36,0,0,1-10.44-10c1.64-23.66-9-47.3-9-47.3S631.17,72,560.52,85c-34.41,6.36-72.44,18.12-105.65,38.69A167.28,167.28,0,0,0,381.43,223a5.9,5.9,0,0,1-11.4,0,167.28,167.28,0,0,0-73.44-99.34C263.37,103.11,225.35,91.35,190.94,85,120.29,72,110.51.21,110.51.21s-10.68,23.64-9,47.3A9.36,9.36,0,0,1,91,57.5c-10.54-1.36-26,.1-40.31,14.45l325,194.57,13-7.76Z" fill="#253642"/></svg>